<?xml version="1.0" standalone="no"?>
<!DOCTYPE svg PUBLIC "-//W3C//DTD SVG 20010904//EN"
 "http://www.w3.org/TR/2001/REC-SVG-20010904/DTD/svg10.dtd">
<svg version="1.0" xmlns="http://www.w3.org/2000/svg"
 width="700.000000pt" height="700.000000pt" viewBox="0 0 700.000000 700.000000"
 preserveAspectRatio="xMidYMid meet">
<metadata>
Created by potrace 1.14, written by Peter Selinger 2001-2017
</metadata>
<g transform="translate(0.000000,700.000000) scale(0.100000,-0.100000)"
fill="#000000" stroke="none">
<path d="M3305 6993 c-605 -32 -1225 -238 -1730 -574 -223 -149 -354 -256
-545 -448 -194 -194 -301 -325 -449 -546 -299 -450 -491 -977 -557 -1535 -24
-198 -24 -582 0 -780 79 -671 332 -1277 752 -1805 113 -141 388 -416 529 -529
772 -615 1736 -877 2708 -735 604 87 1196 346 1682 735 142 114 417 388 529
529 419 526 672 1134 752 1805 24 198 24 582 0 780 -47 400 -154 771 -322
1120 -182 378 -385 663 -683 960 -287 286 -546 476 -891 649 -554 280 -1156
407 -1775 374z m2380 -1927 c19 -8 39 -25 45 -38 9 -21 64 -832 156 -2302 l37
-589 -32 -29 c-38 -34 21 -32 -841 -18 -700 12 -1238 26 -1475 40 -93 6 -249
15 -345 20 -96 6 -200 13 -231 16 l-56 6 784 1416 783 1417 48 3 c26 2 274 18
552 36 278 19 513 34 523 35 10 0 33 -6 52 -13z m-1570 -133 c-15 -27 -362
-654 -772 -1395 l-745 -1348 -52 5 c-28 3 -141 14 -251 25 -207 21 -350 42
-590 86 -135 25 -517 104 -522 108 -2 2 -21 64 -43 139 -74 251 -188 529 -291
711 -104 184 -297 456 -410 579 l-63 69 18 111 c24 155 85 387 141 542 69 190
63 182 137 189 35 4 790 54 1678 111 888 57 1635 106 1660 108 25 2 65 4 88 5
l44 2 -27 -47z"/>
<path d="M4121 3739 c-127 -25 -245 -116 -300 -233 -114 -237 -106 -657 16
-865 34 -59 98 -128 147 -158 124 -79 312 -92 471 -32 120 45 227 182 269 345
38 149 39 410 1 559 -52 207 -184 346 -363 384 -61 13 -177 13 -241 0z m182
-319 c14 -11 36 -46 49 -78 21 -53 23 -71 23 -262 -1 -190 -2 -209 -23 -262
-27 -68 -61 -98 -109 -98 -43 0 -84 40 -101 97 -47 160 -34 495 23 576 34 48
96 60 138 27z"/>
<path d="M2655 4589 c-87 -13 -194 -68 -249 -130 -117 -130 -173 -373 -147
-638 19 -202 64 -320 159 -423 94 -101 219 -145 382 -135 186 12 314 95 390
252 68 140 95 358 70 561 -30 240 -120 394 -273 469 -104 50 -200 63 -332 44z
m163 -324 c17 -14 38 -47 46 -73 23 -65 38 -230 31 -332 -15 -208 -52 -290
-133 -290 -52 0 -77 21 -104 88 -21 53 -23 72 -23 262 0 168 3 215 18 262 30
99 103 135 165 83z"/>
</g>
</svg>
