<?xml version="1.0" standalone="no"?>
<!DOCTYPE svg PUBLIC "-//W3C//DTD SVG 20010904//EN"
 "http://www.w3.org/TR/2001/REC-SVG-20010904/DTD/svg10.dtd">
<svg version="1.0" xmlns="http://www.w3.org/2000/svg"
 width="700.000000pt" height="700.000000pt" viewBox="0 0 700.000000 700.000000"
 preserveAspectRatio="xMidYMid meet">
<metadata>
Created by potrace 1.14, written by Peter Selinger 2001-2017
</metadata>
<g transform="translate(0.000000,700.000000) scale(0.100000,-0.100000)"
fill="#000000" stroke="none">
<path d="M3280 6994 c-19 -2 -84 -9 -145 -14 -639 -62 -1264 -315 -1795 -726
-149 -115 -481 -446 -595 -594 -105 -136 -229 -324 -310 -470 -57 -101 -176
-352 -171 -358 2 -1 657 41 1457 93 800 52 1658 109 1908 125 250 16 456 28
458 26 2 -2 -375 -689 -839 -1526 l-842 -1523 -91 7 c-146 10 -422 43 -592 71
-179 29 -742 141 -776 154 -17 7 -26 23 -36 62 -27 105 -94 306 -153 457 -121
311 -280 589 -510 892 -91 122 -212 258 -221 250 -14 -14 -29 -351 -24 -520
25 -774 287 -1489 763 -2085 114 -143 339 -372 484 -494 537 -451 1163 -717
1885 -803 142 -17 586 -17 730 0 682 79 1268 318 1802 734 138 107 389 351
512 498 451 538 717 1162 803 1885 16 139 16 595 0 730 -77 629 -275 1158
-620 1649 -234 333 -577 668 -917 896 -460 308 -968 495 -1535 566 -117 15
-552 27 -630 18z m2619 -1819 c16 -8 32 -22 36 -32 10 -23 205 -3017 205
-3141 0 -44 -4 -53 -31 -76 l-31 -26 -311 0 c-352 0 -1202 15 -1682 30 -381
12 -1253 58 -1277 68 -14 6 125 262 831 1539 466 842 854 1541 862 1552 13 18
48 22 584 55 314 20 588 37 610 39 105 9 177 6 204 -8z"/>
<path d="M4130 3733 c-161 -25 -289 -111 -359 -243 -45 -84 -67 -153 -87 -271
-23 -141 -15 -407 16 -529 57 -222 171 -359 351 -421 92 -32 265 -32 365 -1
183 56 293 185 356 413 21 76 23 105 23 309 0 200 -3 234 -22 307 -45 166
-147 314 -262 377 -97 52 -262 78 -381 59z m181 -374 c38 -41 58 -109 71 -251
20 -208 -12 -424 -73 -489 -22 -24 -35 -29 -74 -29 -40 0 -51 5 -76 31 -16 17
-36 56 -45 87 -35 119 -34 447 1 567 23 81 59 115 120 115 40 0 52 -5 76 -31z"/>
<path d="M2435 4680 c-206 -43 -336 -177 -396 -407 -32 -126 -45 -310 -31
-455 27 -289 129 -481 302 -568 199 -100 473 -71 621 67 131 122 192 285 206
558 22 439 -134 730 -429 800 -67 16 -207 18 -273 5z m204 -366 c22 -18 37
-46 53 -97 21 -65 23 -92 23 -277 0 -236 -13 -306 -70 -366 -28 -29 -39 -34
-78 -34 -77 0 -117 64 -138 220 -20 151 -7 380 27 482 30 93 118 127 183 72z"/>
</g>
</svg>
